<svg width="27" height="24" viewBox="0 0 27 24" fill="none" xmlns="http://www.w3.org/2000/svg">
<path d="M27 24H0V0H27V24Z" stroke="#E5E7EB"/>
<path d="M12.3984 0.243799C13.0969 -0.0796387 13.9031 -0.0796387 14.6016 0.243799L24.8484 4.97817C25.2469 5.16099 25.5 5.55942 25.5 6.00005C25.5 6.44067 25.2469 6.83911 24.8484 7.02192L14.6016 11.7563C13.9031 12.0797 13.0969 12.0797 12.3984 11.7563L2.15156 7.02192C1.75313 6.83442 1.5 6.43599 1.5 6.00005C1.5 5.56411 1.75313 5.16099 2.15156 4.97817L12.3984 0.243799ZM22.3547 9.82505L24.8484 10.9782C25.2469 11.161 25.5 11.5594 25.5 12C25.5 12.4407 25.2469 12.8391 24.8484 13.0219L14.6016 17.7563C13.9031 18.0797 13.0969 18.0797 12.3984 17.7563L2.15156 13.0219C1.75313 12.8344 1.5 12.436 1.5 12C1.5 11.5641 1.75313 11.161 2.15156 10.9782L4.64531 9.82505L11.7703 13.1157C12.8672 13.6219 14.1328 13.6219 15.2297 13.1157L22.3547 9.82505ZM15.2297 19.1157L22.3547 15.825L24.8484 16.9782C25.2469 17.161 25.5 17.5594 25.5 18C25.5 18.4407 25.2469 18.8391 24.8484 19.0219L14.6016 23.7563C13.9031 24.0797 13.0969 24.0797 12.3984 23.7563L2.15156 19.0219C1.75313 18.8344 1.5 18.436 1.5 18C1.5 17.5641 1.75313 17.161 2.15156 16.9782L4.64531 15.825L11.7703 19.1157C12.8672 19.6219 14.1328 19.6219 15.2297 19.1157Z" fill="white"/>
</svg>
