<svg width="21" height="24" viewBox="0 0 21 24" fill="none" xmlns="http://www.w3.org/2000/svg">
<g clip-path="url(#clip0_36_146)">
<path d="M8.49844 1.51883C9.31406 1.65477 9.86719 2.42821 9.73125 3.24383L9.27188 6.00008H13.7297L14.2687 2.75165C14.4047 1.93602 15.1781 1.3829 15.9938 1.51883C16.8094 1.65477 17.3625 2.42821 17.2266 3.24383L16.7719 6.00008H19.5C20.3297 6.00008 21 6.6704 21 7.50008C21 8.32977 20.3297 9.00008 19.5 9.00008H16.2703L15.2719 15.0001H18C18.8297 15.0001 19.5 15.6704 19.5 16.5001C19.5 17.3298 18.8297 18.0001 18 18.0001H14.7703L14.2313 21.2485C14.0953 22.0641 13.3219 22.6173 12.5062 22.4813C11.6906 22.3454 11.1375 21.572 11.2734 20.7563L11.7328 18.0048H7.27031L6.73125 21.2532C6.59531 22.0688 5.82188 22.622 5.00625 22.486C4.19063 22.3501 3.6375 21.5766 3.77344 20.761L4.22812 18.0001H1.5C0.670312 18.0001 0 17.3298 0 16.5001C0 15.6704 0.670312 15.0001 1.5 15.0001H4.72969L5.72812 9.00008H3C2.17031 9.00008 1.5 8.32977 1.5 7.50008C1.5 6.6704 2.17031 6.00008 3 6.00008H6.22969L6.76875 2.75165C6.90469 1.93602 7.67812 1.3829 8.49375 1.51883H8.49844ZM8.77031 9.00008L7.77188 15.0001H12.2297L13.2281 9.00008H8.77031Z" fill="white"/>
</g>
<defs>
<clipPath id="clip0_36_146">
<path d="M0 0H21V24H0V0Z" fill="white"/>
</clipPath>
</defs>
</svg>
