<svg width="21" height="24" viewBox="0 0 21 24" fill="none" xmlns="http://www.w3.org/2000/svg">
<g clip-path="url(#clip0_36_128)">
<path d="M18.2026 4.87957C18.1954 4.82918 18.1709 4.78288 18.1332 4.74864C18.0956 4.71441 18.0471 4.6944 17.9963 4.69207C17.9026 4.69207 16.2512 4.65457 16.2512 4.65457C16.2512 4.65457 15.2382 3.67863 14.8627 3.30316V23.5874L20.7544 22.1249C20.7544 22.1249 18.2213 4.99207 18.2026 4.87957ZM13.5305 3.30316C13.4405 3.01926 13.3275 2.74319 13.1926 2.47769C12.7032 1.53972 11.9729 1.03113 11.1094 1.03113C11.0464 1.02894 10.9833 1.03524 10.9219 1.04988C10.9032 1.01238 10.8657 0.993629 10.8469 0.956129C10.4719 0.545035 9.98443 0.357535 9.40225 0.374879C8.27725 0.412379 7.15225 1.21863 6.2499 2.66379C5.61193 3.67722 5.1249 4.95316 4.99271 5.94785C3.69803 6.3416 2.79756 6.62332 2.77881 6.64207C2.12256 6.84832 2.10334 6.86707 2.02881 7.48582C1.97256 7.95457 0.247559 21.1649 0.247559 21.1649L14.431 23.6249V3.07816C14.362 3.08076 14.2931 3.08702 14.2247 3.09691C14.2247 3.09691 13.9622 3.17191 13.5305 3.30316ZM10.9412 4.11035C10.1912 4.33535 9.36475 4.59785 8.55803 4.84207C8.78303 3.95988 9.2335 3.07816 9.75896 2.49832C9.96521 2.29207 10.2469 2.04785 10.5657 1.89785C10.8849 2.57144 10.9599 3.49113 10.9412 4.11035ZM9.40225 1.1455C9.6386 1.13805 9.87245 1.19579 10.0782 1.31238C9.77818 1.46238 9.47771 1.7066 9.19646 1.98785C8.4835 2.75754 7.93928 3.9566 7.71428 5.10269C7.03834 5.30941 6.36287 5.51566 5.74553 5.70316C6.15615 3.90363 7.67584 1.183 9.40225 1.1455ZM7.22584 11.466C7.30084 12.6664 10.4719 12.9294 10.6594 15.7625C10.7907 17.9957 9.47725 19.5153 7.58209 19.6283C5.29318 19.7783 4.036 18.4274 4.036 18.4274L4.5235 16.3649C4.5235 16.3649 5.78068 17.3221 6.79412 17.2471C7.45037 17.2096 7.69506 16.6653 7.67584 16.2899C7.58209 14.7139 4.99271 14.8077 4.82397 12.2183C4.67396 10.0414 6.0999 7.84629 9.25225 7.63957C10.471 7.56457 11.0912 7.86504 11.0912 7.86504L10.3782 10.565C10.3782 10.565 9.57147 10.19 8.61428 10.265C7.22584 10.3593 7.20709 11.2405 7.22584 11.466ZM11.6916 3.88488C11.6916 3.32238 11.6166 2.51519 11.3537 1.83972C12.2171 2.00847 12.6296 2.96472 12.8176 3.54738C12.4797 3.64113 12.1044 3.75363 11.6916 3.88488Z" fill="white"/>
</g>
<defs>
<clipPath id="clip0_36_128">
<path d="M0 0H21V24H0V0Z" fill="white"/>
</clipPath>
</defs>
</svg>
