<svg width="21" height="21" viewBox="0 0 21 21" fill="none" xmlns="http://www.w3.org/2000/svg">
<path d="M8.49844 0.0205426C9.31406 0.15648 9.86719 0.929917 9.73125 1.74554L9.27188 4.50179H13.7297L14.2687 1.25336C14.4047 0.43773 15.1781 -0.115395 15.9938 0.0205426C16.8094 0.15648 17.3625 0.929917 17.2266 1.74554L16.7719 4.50179H19.5C20.3297 4.50179 21 5.1721 21 6.00179C21 6.83148 20.3297 7.50179 19.5 7.50179H16.2703L15.2719 13.5018H18C18.8297 13.5018 19.5 14.1721 19.5 15.0018C19.5 15.8315 18.8297 16.5018 18 16.5018H14.7703L14.2313 19.7502C14.0953 20.5659 13.3219 21.119 12.5062 20.983C11.6906 20.8471 11.1375 20.0737 11.2734 19.258L11.7328 16.5065H7.27031L6.73125 19.7549C6.59531 20.5705 5.82188 21.1237 5.00625 20.9877C4.19063 20.8518 3.6375 20.0784 3.77344 19.2627L4.22812 16.5018H1.5C0.670312 16.5018 0 15.8315 0 15.0018C0 14.1721 0.670312 13.5018 1.5 13.5018H4.72969L5.72812 7.50179H3C2.17031 7.50179 1.5 6.83148 1.5 6.00179C1.5 5.1721 2.17031 4.50179 3 4.50179H6.22969L6.76875 1.25336C6.90469 0.43773 7.67812 -0.115395 8.49375 0.0205426H8.49844ZM8.77031 7.50179L7.77188 13.5018H12.2297L13.2281 7.50179H8.77031Z" fill="white"/>
</svg>
