<svg width="24" height="24" viewBox="0 0 24 24" fill="none" xmlns="http://www.w3.org/2000/svg">
<path d="M2.51719 7.56562L7.275 20.5969C3.94687 18.9844 1.65469 15.5719 1.65469 11.625C1.65469 10.1766 1.96406 8.80781 2.51719 7.56562ZM18.3563 11.1234C18.3563 9.89062 17.9156 9.0375 17.5359 8.37188C17.0297 7.55156 16.5563 6.85312 16.5563 6.03281C16.5563 5.11406 17.25 4.26094 18.2297 4.26094C18.2719 4.26094 18.3141 4.26562 18.3609 4.27031C16.5844 2.64375 14.2219 1.65 11.625 1.65C8.14219 1.65 5.07656 3.43594 3.29062 6.14531C3.525 6.15469 3.74531 6.15937 3.93281 6.15937C4.97344 6.15937 6.59063 6.03281 6.59063 6.03281C7.12969 6 7.19063 6.79219 6.65625 6.85312C6.65625 6.85312 6.11719 6.91406 5.51719 6.94687L9.15 17.7469L11.3344 11.2031L9.78281 6.94687C9.24375 6.91406 8.7375 6.85312 8.7375 6.85312C8.19844 6.82031 8.26406 6 8.79844 6.03281C8.79844 6.03281 10.4437 6.15937 11.4234 6.15937C12.4641 6.15937 14.0812 6.03281 14.0812 6.03281C14.6203 6 14.6812 6.79219 14.1469 6.85312C14.1469 6.85312 13.6078 6.91406 13.0078 6.94687L16.6125 17.6672L17.6063 14.3438C18.0281 12.9656 18.3563 11.9766 18.3563 11.1234ZM11.7984 12.4969L8.80781 21.1922C9.70312 21.4547 10.6453 21.6 11.625 21.6C12.7875 21.6 13.8984 21.3984 14.9344 21.0328C14.9062 20.9906 14.8828 20.9437 14.8641 20.8969L11.7984 12.4969ZM20.3766 6.83906C20.4188 7.15781 20.4422 7.49531 20.4422 7.86563C20.4422 8.87813 20.2547 10.0125 19.6828 11.4375L16.6359 20.2453C19.6031 18.5156 21.5953 15.3047 21.5953 11.625C21.5953 9.89062 21.1547 8.25937 20.3766 6.83906ZM23.25 11.625C23.25 18.0375 18.0328 23.25 11.625 23.25C5.2125 23.25 0 18.0328 0 11.625C0 5.2125 5.2125 0 11.625 0C18.0328 0 23.25 5.2125 23.25 11.625ZM22.7156 11.625C22.7156 5.50781 17.7375 0.534375 11.625 0.534375C5.50781 0.534375 0.534375 5.50781 0.534375 11.625C0.534375 17.7422 5.5125 22.7156 11.625 22.7156C17.7422 22.7156 22.7156 17.7422 22.7156 11.625Z" fill="white"/>
</svg>
