<svg width="21" height="24" viewBox="0 0 21 24" fill="none" xmlns="http://www.w3.org/2000/svg">
<path d="M17.955 4.50579C17.9478 4.4554 17.9233 4.4091 17.8857 4.37486C17.848 4.34063 17.7996 4.32062 17.7488 4.31829C17.655 4.31829 16.0036 4.28079 16.0036 4.28079C16.0036 4.28079 14.9906 3.30485 14.6152 2.92938V23.2136L20.5069 21.7511C20.5069 21.7511 17.9738 4.61829 17.955 4.50579ZM13.283 2.92938C13.193 2.64548 13.0799 2.36941 12.945 2.10391C12.4556 1.16594 11.7253 0.65735 10.8619 0.65735C10.7988 0.655159 10.7358 0.661465 10.6744 0.6761C10.6556 0.6386 10.6181 0.61985 10.5994 0.58235C10.2244 0.171256 9.73688 -0.0162438 9.15469 0.00109993C8.02969 0.0385999 6.90469 0.84485 6.00234 2.29001C5.36438 3.30344 4.87734 4.57938 4.74516 5.57407C3.45047 5.96782 2.55 6.24954 2.53125 6.26829C1.875 6.47454 1.85578 6.49329 1.78125 7.11204C1.725 7.58079 0 20.7911 0 20.7911L14.1834 23.2511V2.70438C14.1144 2.70698 14.0456 2.71324 13.9772 2.72313C13.9772 2.72313 13.7147 2.79813 13.283 2.92938ZM10.6936 3.73657C9.94359 3.96157 9.11719 4.22407 8.31047 4.46829C8.53547 3.5861 8.98594 2.70438 9.51141 2.12454C9.71766 1.91829 9.99937 1.67407 10.3181 1.52407C10.6373 2.19766 10.7123 3.11735 10.6936 3.73657ZM9.15469 0.771725C9.39104 0.764275 9.62489 0.822007 9.83063 0.9386C9.53063 1.0886 9.23016 1.33282 8.94891 1.61407C8.23594 2.38376 7.69172 3.58282 7.46672 4.72891C6.79078 4.93563 6.11531 5.14188 5.49797 5.32938C5.90859 3.52985 7.42828 0.809225 9.15469 0.771725ZM6.97828 11.0922C7.05328 12.2927 10.2244 12.5556 10.4119 15.3888C10.5431 17.6219 9.22969 19.1416 7.33453 19.2545C5.04562 19.4045 3.78844 18.0536 3.78844 18.0536L4.27594 15.9911C4.27594 15.9911 5.53312 16.9483 6.54656 16.8733C7.20281 16.8358 7.4475 16.2916 7.42828 15.9161C7.33453 14.3402 4.74516 14.4339 4.57641 11.8445C4.42641 9.66766 5.85234 7.47251 9.00469 7.26579C10.2234 7.19079 10.8436 7.49126 10.8436 7.49126L10.1306 10.1913C10.1306 10.1913 9.32391 9.81626 8.36672 9.89126C6.97828 9.98548 6.95953 10.8667 6.97828 11.0922ZM11.4441 3.5111C11.4441 2.9486 11.3691 2.14141 11.1061 1.46594C11.9695 1.63469 12.382 2.59094 12.57 3.1736C12.2322 3.26735 11.8569 3.37985 11.4441 3.5111Z" fill="white"/>
</svg>
