<svg width="24" height="24" viewBox="0 0 24 24" fill="none" xmlns="http://www.w3.org/2000/svg">
<g clip-path="url(#clip0_36_119)">
<path d="M2.89219 7.94062L7.65 20.9719C4.32187 19.3594 2.02969 15.9469 2.02969 12C2.02969 10.5516 2.33906 9.18281 2.89219 7.94062ZM18.7313 11.4984C18.7313 10.2656 18.2906 9.4125 17.9109 8.74688C17.4047 7.92656 16.9313 7.22812 16.9313 6.40781C16.9313 5.48906 17.625 4.63594 18.6047 4.63594C18.6469 4.63594 18.6891 4.64062 18.7359 4.64531C16.9594 3.01875 14.5969 2.025 12 2.025C8.51719 2.025 5.45156 3.81094 3.66562 6.52031C3.9 6.52969 4.12031 6.53437 4.30781 6.53437C5.34844 6.53437 6.96563 6.40781 6.96563 6.40781C7.50469 6.375 7.56563 7.16719 7.03125 7.22812C7.03125 7.22812 6.49219 7.28906 5.89219 7.32187L9.525 18.1219L11.7094 11.5781L10.1578 7.32187C9.61875 7.28906 9.1125 7.22812 9.1125 7.22812C8.57344 7.19531 8.63906 6.375 9.17344 6.40781C9.17344 6.40781 10.8187 6.53437 11.7984 6.53437C12.8391 6.53437 14.4562 6.40781 14.4562 6.40781C14.9953 6.375 15.0562 7.16719 14.5219 7.22812C14.5219 7.22812 13.9828 7.28906 13.3828 7.32187L16.9875 18.0422L17.9813 14.7188C18.4031 13.3406 18.7313 12.3516 18.7313 11.4984ZM12.1734 12.8719L9.18281 21.5672C10.0781 21.8297 11.0203 21.975 12 21.975C13.1625 21.975 14.2734 21.7734 15.3094 21.4078C15.2812 21.3656 15.2578 21.3187 15.2391 21.2719L12.1734 12.8719ZM20.7516 7.21406C20.7938 7.53281 20.8172 7.87031 20.8172 8.24063C20.8172 9.25313 20.6297 10.3875 20.0578 11.8125L17.0109 20.6203C19.9781 18.8906 21.9703 15.6797 21.9703 12C21.9703 10.2656 21.5297 8.63437 20.7516 7.21406ZM23.625 12C23.625 18.4125 18.4078 23.625 12 23.625C5.5875 23.625 0.375 18.4078 0.375 12C0.375 5.5875 5.5875 0.375 12 0.375C18.4078 0.375 23.625 5.5875 23.625 12ZM23.0906 12C23.0906 5.88281 18.1125 0.909375 12 0.909375C5.88281 0.909375 0.909375 5.88281 0.909375 12C0.909375 18.1172 5.8875 23.0906 12 23.0906C18.1172 23.0906 23.0906 18.1172 23.0906 12Z" fill="white"/>
</g>
<defs>
<clipPath id="clip0_36_119">
<path d="M0 0H24V24H0V0Z" fill="white"/>
</clipPath>
</defs>
</svg>
