<svg width="24" height="24" viewBox="0 0 24 24" fill="none" xmlns="http://www.w3.org/2000/svg">
<g clip-path="url(#clip0_36_173)">
<path d="M17.2687 0.857812L14.6577 3.47344L20.5265 9.34219L23.1374 6.73125C24.164 5.70469 24.164 4.04531 23.1374 3.01875L20.9812 0.857812C19.9546 -0.16875 18.2952 -0.16875 17.2687 0.857812ZM13.4999 4.43437L13.0687 4.56563L6.31399 6.59063C5.38117 6.87188 4.64055 7.58438 4.33117 8.5125L0.178048 20.8969C-7.7188e-05 21.4266 0.131173 22.0172 0.520235 22.4156L7.72024 15.2203C7.57961 14.925 7.49992 14.5969 7.49992 14.25C7.49992 13.0078 8.50774 12 9.74992 12C10.9921 12 11.9999 13.0078 11.9999 14.25C11.9999 15.4922 10.9921 16.5 9.74992 16.5C9.40305 16.5 9.07492 16.4203 8.77961 16.2797L1.57961 23.4797C1.98274 23.8687 2.56867 24.0047 3.09836 23.8219L15.4874 19.6688C16.4109 19.3594 17.128 18.6187 17.4093 17.6859L19.4343 10.9312L19.5655 10.5L13.4999 4.43437Z" fill="white"/>
</g>
<defs>
<clipPath id="clip0_36_173">
<path d="M0 0H24V24H0V0Z" fill="white"/>
</clipPath>
</defs>
</svg>
