<svg width="24" height="24" viewBox="0 0 24 24" fill="none" xmlns="http://www.w3.org/2000/svg">
<path d="M17.1688 0.769922L14.5579 3.38555L20.4266 9.2543L23.0376 6.64336C24.0641 5.6168 24.0641 3.95742 23.0376 2.93086L20.8813 0.769922C19.8548 -0.256641 18.1954 -0.256641 17.1688 0.769922ZM13.4001 4.34648L12.9688 4.47773L6.21413 6.50273C5.28132 6.78398 4.54069 7.49648 4.23132 8.42461L0.0781943 20.809C-0.0999307 21.3387 0.0313193 21.9293 0.420382 22.3277L7.62038 15.1324C7.47976 14.8371 7.40007 14.509 7.40007 14.1621C7.40007 12.9199 8.40788 11.9121 9.65007 11.9121C10.8923 11.9121 11.9001 12.9199 11.9001 14.1621C11.9001 15.4043 10.8923 16.4121 9.65007 16.4121C9.30319 16.4121 8.97507 16.3324 8.67976 16.1918L1.47976 23.3918C1.88288 23.7809 2.46882 23.9168 2.99851 23.734L15.3876 19.5809C16.311 19.2715 17.0282 18.5309 17.3094 17.598L19.3344 10.8434L19.4657 10.4121L13.4001 4.34648Z" fill="white"/>
</svg>
