<svg width="21" height="21" viewBox="0 0 21 21" fill="none" xmlns="http://www.w3.org/2000/svg">
<path d="M7.5 2.25C7.5 1.00781 8.50781 0 9.75 0H11.25C12.4922 0 13.5 1.00781 13.5 2.25V18.75C13.5 19.9922 12.4922 21 11.25 21H9.75C8.50781 21 7.5 19.9922 7.5 18.75V2.25ZM0 11.25C0 10.0078 1.00781 9 2.25 9H3.75C4.99219 9 6 10.0078 6 11.25V18.75C6 19.9922 4.99219 21 3.75 21H2.25C1.00781 21 0 19.9922 0 18.75V11.25ZM17.25 3H18.75C19.9922 3 21 4.00781 21 5.25V18.75C21 19.9922 19.9922 21 18.75 21H17.25C16.0078 21 15 19.9922 15 18.75V5.25C15 4.00781 16.0078 3 17.25 3Z" fill="white"/>
</svg>
