<svg width="24" height="24" viewBox="0 0 24 24" fill="none" xmlns="http://www.w3.org/2000/svg">
<path d="M7.34067 18.041L5.89223 16.5926C5.4938 16.1942 5.35317 15.6176 5.5313 15.0832C5.67192 14.666 5.85942 14.1223 6.08442 13.4989H1.12505C0.72192 13.4989 0.34692 13.2832 0.145358 12.9317C-0.0562045 12.5801 -0.051517 12.1489 0.154733 11.802L2.61567 7.65354C3.22505 6.62698 4.32661 5.99885 5.51723 5.99885H9.37505C9.48755 5.81135 9.60005 5.63792 9.71255 5.46917C13.5516 -0.193333 19.2704 -0.380832 22.6829 0.247293C23.2266 0.34573 23.6485 0.772293 23.7516 1.31604C24.3797 4.73323 24.1875 10.4473 18.5297 14.2864C18.3657 14.3989 18.1875 14.5114 18 14.6239V18.4817C18 19.6723 17.3719 20.7785 16.3454 21.3832L12.1969 23.8442C11.85 24.0504 11.4188 24.0551 11.0672 23.8535C10.7157 23.652 10.5 23.2817 10.5 22.8739V17.8489C9.83911 18.0785 9.26255 18.266 8.82661 18.4067C8.30161 18.5754 7.72973 18.4301 7.33598 18.041H7.34067ZM18 7.87385C18.4973 7.87385 18.9742 7.67631 19.3259 7.32468C19.6775 6.97305 19.875 6.49614 19.875 5.99885C19.875 5.50157 19.6775 5.02466 19.3259 4.67303C18.9742 4.3214 18.4973 4.12386 18 4.12385C17.5028 4.12386 17.0259 4.3214 16.6742 4.67303C16.3226 5.02466 16.125 5.50157 16.125 5.99885C16.125 6.49614 16.3226 6.97305 16.6742 7.32468C17.0259 7.67631 17.5028 7.87385 18 7.87385Z" fill="white"/>
</svg>
