<svg width="24" height="24" viewBox="0 0 24 24" fill="none" xmlns="http://www.w3.org/2000/svg">
<g clip-path="url(#clip0_36_225)">
<path d="M7.34067 18.0423L5.89223 16.5938C5.4938 16.1954 5.35317 15.6188 5.5313 15.0845C5.67192 14.6673 5.85942 14.1235 6.08442 13.5001H1.12505C0.72192 13.5001 0.34692 13.2845 0.145358 12.9329C-0.0562045 12.5813 -0.051517 12.1501 0.154733 11.8032L2.61567 7.65476C3.22505 6.6282 4.32661 6.00008 5.51723 6.00008H9.37505C9.48755 5.81258 9.60005 5.63914 9.71255 5.47039C13.5516 -0.192112 19.2704 -0.379612 22.6829 0.248513C23.2266 0.346951 23.6485 0.773513 23.7516 1.31726C24.3797 4.73445 24.1875 10.4485 18.5297 14.2876C18.3657 14.4001 18.1875 14.5126 18 14.6251V18.4829C18 19.6735 17.3719 20.7798 16.3454 21.3845L12.1969 23.8454C11.85 24.0516 11.4188 24.0563 11.0672 23.8548C10.7157 23.6532 10.5 23.2829 10.5 22.8751V17.8501C9.83911 18.0798 9.26255 18.2673 8.82661 18.4079C8.30161 18.5766 7.72973 18.4313 7.33598 18.0423H7.34067ZM18 7.87508C18.4973 7.87508 18.9742 7.67753 19.3259 7.3259C19.6775 6.97427 19.875 6.49736 19.875 6.00008C19.875 5.50279 19.6775 5.02588 19.3259 4.67425C18.9742 4.32262 18.4973 4.12508 18 4.12508C17.5028 4.12508 17.0259 4.32262 16.6742 4.67425C16.3226 5.02588 16.125 5.50279 16.125 6.00008C16.125 6.49736 16.3226 6.97427 16.6742 7.3259C17.0259 7.67753 17.5028 7.87508 18 7.87508Z" fill="white"/>
</g>
<defs>
<clipPath id="clip0_36_225">
<path d="M0 0H24V24H0V0Z" fill="white"/>
</clipPath>
</defs>
</svg>
