<svg width="20" height="17" viewBox="0 0 20 17" fill="none" xmlns="http://www.w3.org/2000/svg">
<path d="M17.93 4.06C17.9567 4.24667 17.97 4.41667 17.97 4.57C17.97 6.41667 17.5133 8.22667 16.6 10C15.7133 11.7733 14.4 13.2433 12.66 14.41C10.94 15.5833 8.81667 16.1967 6.29 16.25C3.94333 16.2233 1.84667 15.61 0 14.41C0.313333 14.4367 0.64 14.45 0.98 14.45C2.93333 14.4233 4.63667 13.84 6.09 12.7C5.15667 12.6733 4.35 12.4 3.67 11.88C2.99667 11.3533 2.53 10.6867 2.27 9.88C2.50333 9.90667 2.75 9.92 3.01 9.92C3.39667 9.92 3.76 9.88 4.1 9.8C3.14 9.59333 2.36 9.12667 1.76 8.4C1.16 7.66667 0.846667 6.79333 0.82 5.78V5.7C1.36667 6.01333 1.98 6.19667 2.66 6.25C1.51333 5.44333 0.9 4.29667 0.82 2.81C0.846667 2.05667 1.04333 1.36667 1.41 0.74C2.42333 1.99333 3.66 2.99667 5.12 3.75C6.55333 4.50333 8.12667 4.93333 9.84 5.04C9.79333 4.72667 9.77 4.41333 9.77 4.1C9.79 2.95333 10.18 1.99 10.94 1.21C11.72 0.43 12.6833 0.0266667 13.83 0C15.05 0.0266667 16.0533 0.456667 16.84 1.29C17.7733 1.11 18.6433 0.783333 19.45 0.31C19.1167 1.27667 18.52 2.03333 17.66 2.58C18.4667 2.47333 19.2467 2.25 20 1.91C19.4267 2.74333 18.7367 3.46 17.93 4.06Z" fill="#94A3B8"/>
</svg>
