<svg width="11" height="14" viewBox="0 0 11 14" fill="none" xmlns="http://www.w3.org/2000/svg">
<path d="M5.91 13.64C6.39667 13.04 6.99667 12.23 7.71 11.21C8.42333 10.21 9.06333 9.17 9.63 8.09C10.1767 7.01667 10.4667 6.07 10.5 5.25C10.4667 3.75667 9.95667 2.51667 8.97 1.53C7.98333 0.543333 6.74333 0.0333333 5.25 0C3.75667 0.0333333 2.51667 0.543333 1.53 1.53C0.543333 2.51667 0.0333333 3.75667 0 5.25C0.0333333 6.07 0.326667 7.01667 0.88 8.09C1.44 9.17 2.07667 10.21 2.79 11.21C3.50333 12.23 4.10333 13.04 4.59 13.64C4.77667 13.86 4.99667 13.97 5.25 13.97C5.50333 13.97 5.72333 13.86 5.91 13.64ZM5.25 3.5C5.90333 3.52 6.40333 3.81333 6.75 4.38C7.08333 4.96 7.08333 5.54333 6.75 6.13C6.40333 6.69 5.90333 6.98 5.25 7C4.59667 6.98 4.09667 6.69 3.75 6.13C3.41667 5.54333 3.41667 4.96 3.75 4.38C4.09667 3.81333 4.59667 3.52 5.25 3.5Z" fill="#94A3B8"/>
</svg>
