<svg width="18" height="18" viewBox="0 0 18 18" fill="none" xmlns="http://www.w3.org/2000/svg">
<path d="M16.25 0H1.25C0.883333 0 0.583333 0.116667 0.35 0.35C0.116667 0.61 0 0.91 0 1.25V16.25C0 16.59 0.116667 16.89 0.35 17.15C0.583333 17.3833 0.883333 17.5 1.25 17.5H16.25C16.6167 17.5 16.9167 17.3833 17.15 17.15C17.3833 16.89 17.5 16.59 17.5 16.25V1.25C17.5 0.91 17.3833 0.61 17.15 0.35C16.9167 0.116667 16.6167 0 16.25 0ZM5.27 15H2.7V6.64H5.31V15H5.27ZM3.98 5.51C3.56667 5.51 3.21667 5.36667 2.93 5.08C2.64333 4.79333 2.5 4.44 2.5 4.02C2.5 3.58 2.64333 3.21667 2.93 2.93C3.21667 2.64333 3.56667 2.5 3.98 2.5C4.42667 2.5 4.78 2.64333 5.04 2.93C5.32667 3.21667 5.48333 3.58 5.51 4.02C5.48333 4.44 5.32667 4.79333 5.04 5.08C4.78 5.36667 4.42667 5.51 3.98 5.51ZM15 15H12.42V10.94C12.4467 10.42 12.3833 9.92333 12.23 9.45C12.0967 9.01 11.7033 8.76333 11.05 8.71C10.4033 8.73667 9.97667 8.96 9.77 9.38C9.58333 9.79333 9.50333 10.2867 9.53 10.86V15H6.91V6.64H9.41V7.77H9.45C9.61 7.43667 9.89667 7.14 10.31 6.88C10.73 6.59333 11.2633 6.45 11.91 6.45C13.19 6.47 14.0367 6.84667 14.45 7.58C14.87 8.33333 15.0533 9.28333 15 10.43V15Z" fill="#94A3B8"/>
</svg>
