<svg width="14" height="14" viewBox="0 0 14 14" fill="none" xmlns="http://www.w3.org/2000/svg">
<g clip-path="url(#clip0_36_361)">
<path d="M4.51 0.679596C4.40333 0.406263 4.23 0.216263 3.99 0.109596C3.73667 0.00292969 3.47333 -0.023737 3.2 0.0295964L0.79 0.679596C0.296667 0.866263 0.0333333 1.22293 0 1.7496C0.02 4.0296 0.576667 6.0896 1.67 7.9296C2.76333 9.7696 4.23 11.2363 6.07 12.3296C7.91 13.4229 9.97 13.9796 12.25 13.9996C12.7767 13.9663 13.1333 13.7029 13.32 13.2096L13.97 10.7996C14.0233 10.5263 13.9967 10.2629 13.89 10.0096C13.7833 9.7696 13.5933 9.59626 13.32 9.4896L10.69 8.3896C10.1967 8.2296 9.77667 8.3396 9.43 8.7196L8.34 10.0596C7.37333 9.60626 6.50667 9.00626 5.74 8.2596C4.99333 7.49293 4.39333 6.62626 3.94 5.6596L5.28 4.5696C5.66 4.22293 5.77 3.80293 5.61 3.3096L4.51 0.679596Z" fill="#94A3B8"/>
</g>
<defs>
<clipPath id="clip0_36_361">
<rect width="14" height="14" fill="white"/>
</clipPath>
</defs>
</svg>
