<svg width="18" height="18" viewBox="0 0 18 18" fill="none" xmlns="http://www.w3.org/2000/svg">
<path d="M8.75 4.26C7.47667 4.28667 6.42333 4.73 5.59 5.59C4.73 6.42333 4.28667 7.47667 4.26 8.75C4.28667 10.0233 4.73 11.0767 5.59 11.91C6.42333 12.77 7.47667 13.2133 8.75 13.24C10.0233 13.2133 11.0767 12.77 11.91 11.91C12.77 11.0767 13.2133 10.0233 13.24 8.75C13.2133 7.47667 12.77 6.42333 11.91 5.59C11.0767 4.73 10.0233 4.28667 8.75 4.26ZM8.75 11.68C7.91667 11.6533 7.22667 11.3667 6.68 10.82C6.13333 10.2733 5.84667 9.58333 5.82 8.75C5.84667 7.91667 6.13333 7.22667 6.68 6.68C7.22667 6.13333 7.91667 5.84667 8.75 5.82C9.58333 5.84667 10.2733 6.13333 10.82 6.68C11.3667 7.22667 11.6533 7.91667 11.68 8.75C11.6533 9.58333 11.3667 10.2733 10.82 10.82C10.2733 11.3667 9.58333 11.6533 8.75 11.68ZM14.49 4.06C14.4167 4.71333 14.0667 5.06667 13.44 5.12C12.7867 5.06667 12.4333 4.71333 12.38 4.06C12.38 3.77333 12.4867 3.52667 12.7 3.32C12.88 3.14 13.1267 3.05 13.44 3.05C13.7267 3.05 13.9733 3.14 14.18 3.32C14.36 3.52667 14.4633 3.77333 14.49 4.06ZM17.46 5.16C17.46 3.72667 16.98 2.5 16.02 1.48C15 0.52 13.7867 0.04 12.38 0.04C11.86 0.0133333 11.12 0 10.16 0C9.22 0 8.28 0 7.34 0C6.38 0 5.65333 0.0133333 5.16 0.04C3.75333 0.04 2.52667 0.52 1.48 1.48C0.52 2.5 0.0533333 3.71333 0.08 5.12C0.0266667 5.64 0 6.38 0 7.34C0 8.28 0 9.22 0 10.16C0 11.0933 0.0266667 11.82 0.08 12.34C0.0533333 13.7733 0.52 15 1.48 16.02C2.5 16.98 3.72667 17.4467 5.16 17.42C5.65333 17.4467 6.38 17.4733 7.34 17.5C8.28 17.5 9.22 17.5 10.16 17.5C11.12 17.4733 11.86 17.4467 12.38 17.42C13.7867 17.4467 15 16.98 16.02 16.02C16.98 15 17.46 13.7733 17.46 12.34C17.4867 11.82 17.5 11.0933 17.5 10.16C17.5 9.22 17.5 8.28 17.5 7.34C17.5 6.38 17.4867 5.64 17.46 5.12V5.16ZM15.59 13.91C15.25 14.69 14.69 15.25 13.91 15.59C13.39 15.77 12.6867 15.8733 11.8 15.9C10.9133 15.9267 10.1067 15.94 9.38 15.94C9.14 15.94 8.93 15.94 8.75 15.94C8.57 15.94 8.36333 15.94 8.13 15.94C7.39667 15.94 6.58667 15.9267 5.7 15.9C4.84 15.8733 4.13667 15.77 3.59 15.59C2.81 15.25 2.25 14.69 1.91 13.91C1.73 13.3633 1.62667 12.66 1.6 11.8C1.57333 10.9133 1.56 10.1067 1.56 9.38C1.56 9.14 1.56 8.93 1.56 8.75C1.56 8.57 1.56 8.36333 1.56 8.13C1.56 7.39667 1.57333 6.58667 1.6 5.7C1.62667 4.82 1.73 4.11667 1.91 3.59C2.25 2.81 2.81 2.25 3.59 1.91C4.13667 1.73 4.84 1.62667 5.7 1.6C6.58667 1.54667 7.39667 1.53333 8.13 1.56C8.36333 1.56 8.57 1.56 8.75 1.56C8.93 1.56 9.14 1.56 9.38 1.56C10.1067 1.56 10.9133 1.57333 11.8 1.6C12.6867 1.62667 13.39 1.73 13.91 1.91C14.69 2.25 15.25 2.81 15.59 3.59C15.77 4.11667 15.8733 4.82 15.9 5.7C15.9533 6.58667 15.9667 7.39667 15.94 8.13C15.94 8.36333 15.94 8.57 15.94 8.75C15.94 8.93 15.94 9.14 15.94 9.38C15.9667 10.1067 15.9533 10.9133 15.9 11.8C15.8733 12.6867 15.77 13.39 15.59 13.91Z" fill="#94A3B8"/>
</svg>
