<svg width="14" height="14" viewBox="0 0 14 14" fill="none" xmlns="http://www.w3.org/2000/svg">
<path d="M4.51 0.676667C4.40333 0.403333 4.23 0.213333 3.99 0.106667C3.73667 0 3.47333 -0.0266667 3.2 0.0266667L0.79 0.676667C0.296667 0.863333 0.0333333 1.22 0 1.74667C0.02 4.02667 0.576667 6.08667 1.67 7.92667C2.76333 9.76667 4.23 11.2333 6.07 12.3267C7.91 13.42 9.97 13.9767 12.25 13.9967C12.7767 13.9633 13.1333 13.7 13.32 13.2067L13.97 10.7967C14.0233 10.5233 13.9967 10.26 13.89 10.0067C13.7833 9.76667 13.5933 9.59333 13.32 9.48667L10.69 8.38667C10.1967 8.22667 9.77667 8.33667 9.43 8.71667L8.34 10.0567C7.37333 9.60333 6.50667 9.00333 5.74 8.25667C4.99333 7.49 4.39333 6.62333 3.94 5.65667L5.28 4.56667C5.66 4.22 5.77 3.8 5.61 3.30667L4.51 0.676667Z" fill="#94A3B8"/>
</svg>
