<svg width="14" height="11" viewBox="0 0 14 11" fill="none" xmlns="http://www.w3.org/2000/svg">
<path d="M1.31 0C0.95 0.02 0.64 0.146667 0.38 0.38C0.146667 0.64 0.02 0.95 0 1.31C0.02 1.75 0.193333 2.09667 0.52 2.35L6.48 6.84C6.82667 7.05333 7.17333 7.05333 7.52 6.84L13.48 2.35C13.8067 2.09667 13.98 1.75 14 1.31C13.98 0.95 13.8533 0.64 13.62 0.38C13.36 0.146667 13.05 0.02 12.69 0H1.31ZM0 3.06V8.75C0.02 9.24333 0.193333 9.65333 0.52 9.98C0.846667 10.3067 1.25667 10.48 1.75 10.5H12.25C12.7433 10.48 13.1533 10.3067 13.48 9.98C13.8067 9.65333 13.98 9.24333 14 8.75V3.06L8.04 7.52C7.72667 7.76 7.38 7.88 7 7.88C6.62 7.88 6.27333 7.76 5.96 7.52L0 3.06Z" fill="#94A3B8"/>
</svg>
