<svg width="19" height="19" viewBox="0 0 19 19" fill="none" xmlns="http://www.w3.org/2000/svg">
<g clip-path="url(#clip0_36_467)">
<path d="M9.36 18.72C11.0667 18.6933 12.6267 18.28 14.04 17.48C15.4533 16.6467 16.6 15.5 17.48 14.04C18.3067 12.5533 18.72 10.9933 18.72 9.36C18.72 7.72667 18.3067 6.16667 17.48 4.68C16.6 3.22 15.4533 2.07333 14.04 1.24C12.6267 0.44 11.0667 0.0266667 9.36 0C7.65333 0.0266667 6.09333 0.44 4.68 1.24C3.26667 2.07333 2.12 3.22 1.24 4.68C0.413333 6.16667 0 7.72667 0 9.36C0 10.9933 0.413333 12.5533 1.24 14.04C2.12 15.5 3.26667 16.6467 4.68 17.48C6.09333 18.28 7.65333 18.6933 9.36 18.72ZM13.49 7.64L8.81 12.32C8.39667 12.66 7.98333 12.66 7.57 12.32L5.23 9.98C4.89 9.56667 4.89 9.15333 5.23 8.74C5.64333 8.4 6.05667 8.4 6.47 8.74L8.19 10.46L12.25 6.4C12.6633 6.06 13.0767 6.06 13.49 6.4C13.83 6.81333 13.83 7.22667 13.49 7.64Z" fill="#10B981"/>
</g>
<defs>
<clipPath id="clip0_36_467">
<rect width="18.72" height="18.72" fill="white"/>
</clipPath>
</defs>
</svg>
