<svg width="14" height="10" viewBox="0 0 14 10" fill="none" xmlns="http://www.w3.org/2000/svg">
<g clip-path="url(#clip0_36_478)">
<path d="M13.03 0.27C13.21 0.463333 13.3 0.69 13.3 0.95C13.3 1.21 13.21 1.43667 13.03 1.63L5.43 9.23C5.23667 9.41 5.01 9.5 4.75 9.5C4.49 9.5 4.26333 9.41 4.07 9.23L0.27 5.43C0.09 5.23667 0 5.01 0 4.75C0 4.49 0.09 4.26333 0.27 4.07C0.463333 3.89 0.69 3.8 0.95 3.8C1.21 3.8 1.43667 3.89 1.63 4.07L4.75 7.21L11.67 0.27C11.8633 0.09 12.09 0 12.35 0C12.61 0 12.8367 0.09 13.03 0.27Z" fill="#10B981"/>
</g>
<defs>
<clipPath id="clip0_36_478">
<rect width="13.3" height="9.5" fill="white"/>
</clipPath>
</defs>
</svg>
