<svg width="10" height="10" viewBox="0 0 10 10" fill="none" xmlns="http://www.w3.org/2000/svg">
<g clip-path="url(#clip0_36_431)">
<path d="M9.23 1.63C9.41 1.43667 9.5 1.21 9.5 0.95C9.5 0.69 9.41 0.463333 9.23 0.27C9.03667 0.09 8.81 0 8.55 0C8.29 0 8.06333 0.09 7.87 0.27L4.75 3.41L1.63 0.27C1.43667 0.09 1.21 0 0.95 0C0.69 0 0.463333 0.09 0.27 0.27C0.09 0.463333 0 0.69 0 0.95C0 1.21 0.09 1.43667 0.27 1.63L3.41 4.75L0.27 7.87C0.09 8.06333 0 8.29 0 8.55C0 8.81 0.09 9.03667 0.27 9.23C0.463333 9.41 0.69 9.5 0.95 9.5C1.21 9.5 1.43667 9.41 1.63 9.23L4.75 6.09L7.87 9.23C8.06333 9.41 8.29 9.5 8.55 9.5C8.81 9.5 9.03667 9.41 9.23 9.23C9.41 9.03667 9.5 8.81 9.5 8.55C9.5 8.29 9.41 8.06333 9.23 7.87L6.09 4.75L9.23 1.63Z" fill="#EF4444"/>
</g>
<defs>
<clipPath id="clip0_36_431">
<rect width="9.5" height="9.5" fill="white"/>
</clipPath>
</defs>
</svg>
