<svg width="45" height="36" viewBox="0 0 45 36" fill="none" xmlns="http://www.w3.org/2000/svg">
<g clip-path="url(#clip0_36_69)">
<path d="M27.6187 0.0843965C26.4234 -0.260135 25.1789 0.435959 24.8343 1.63127L15.8343 33.1313C15.4898 34.3266 16.1859 35.5711 17.3812 35.9156C18.5765 36.2602 19.821 35.5641 20.1656 34.3688L29.1656 2.86877C29.5101 1.67346 28.814 0.428928 27.6187 0.0843965ZM33.2859 8.52893C32.407 9.40783 32.407 10.8352 33.2859 11.7141L39.5648 18L33.2789 24.286C32.4 25.1649 32.4 26.5922 33.2789 27.4711C34.1578 28.35 35.5851 28.35 36.464 27.4711L44.339 19.5961C45.2179 18.7172 45.2179 17.2899 44.339 16.411L36.464 8.53596C35.5851 7.65705 34.1578 7.65705 33.2789 8.53596L33.2859 8.52893ZM11.721 8.52893C10.8421 7.65002 9.41479 7.65002 8.53589 8.52893L0.660889 16.4039C-0.218018 17.2828 -0.218018 18.7102 0.660889 19.5891L8.53589 27.4641C9.41479 28.343 10.8421 28.343 11.721 27.4641C12.6 26.5852 12.6 25.1578 11.721 24.2789L5.43511 18L11.721 11.7141C12.6 10.8352 12.6 9.40783 11.721 8.52893Z" fill="#4F46E5"/>
</g>
<defs>
<clipPath id="clip0_36_69">
<path d="M0 0H45V36H0V0Z" fill="white"/>
</clipPath>
</defs>
</svg>
