<svg width="45" height="36" viewBox="0 0 45 36" fill="none" xmlns="http://www.w3.org/2000/svg">
<path d="M27.617 0.0843965C26.4217 -0.260135 25.1771 0.435959 24.8326 1.63127L15.8326 33.1313C15.4881 34.3266 16.1842 35.5711 17.3795 35.9156C18.5748 36.2602 19.8193 35.5641 20.1639 34.3688L29.1639 2.86877C29.5084 1.67346 28.8123 0.428928 27.617 0.0843965ZM33.2842 8.52893C32.4053 9.40783 32.4053 10.8352 33.2842 11.7141L39.5631 18L33.2771 24.286C32.3982 25.1649 32.3982 26.5922 33.2771 27.4711C34.1561 28.35 35.5834 28.35 36.4623 27.4711L44.3373 19.5961C45.2162 18.7172 45.2162 17.2899 44.3373 16.411L36.4623 8.53596C35.5834 7.65705 34.1561 7.65705 33.2771 8.53596L33.2842 8.52893ZM11.7193 8.52893C10.8404 7.65002 9.41309 7.65002 8.53418 8.52893L0.65918 16.4039C-0.219727 17.2828 -0.219727 18.7102 0.65918 19.5891L8.53418 27.4641C9.41309 28.343 10.8404 28.343 11.7193 27.4641C12.5982 26.5852 12.5982 25.1578 11.7193 24.2789L5.4334 18L11.7193 11.7141C12.5982 10.8352 12.5982 9.40783 11.7193 8.52893Z" fill="#4F46E5"/>
</svg>
