<svg width="36" height="32" viewBox="0 0 36 32" fill="none" xmlns="http://www.w3.org/2000/svg">
<path d="M4.5 2.25C4.5 1.00547 3.49453 0 2.25 0C1.00547 0 0 1.00547 0 2.25V25.875C0 28.9828 2.51719 31.5 5.625 31.5H33.75C34.9945 31.5 36 30.4945 36 29.25C36 28.0055 34.9945 27 33.75 27H5.625C5.00625 27 4.5 26.4937 4.5 25.875V2.25ZM33.0891 8.33906C33.968 7.46016 33.968 6.03281 33.0891 5.15391C32.2102 4.275 30.7828 4.275 29.9039 5.15391L22.5 12.5648L18.4641 8.52891C17.5852 7.65 16.1578 7.65 15.2789 8.52891L7.40391 16.4039C6.525 17.2828 6.525 18.7102 7.40391 19.5891C8.28281 20.468 9.71016 20.468 10.5891 19.5891L16.875 13.3102L20.9109 17.3461C21.7898 18.225 23.2172 18.225 24.0961 17.3461L33.0961 8.34609L33.0891 8.33906Z" fill="#7C3AED"/>
</svg>
