<svg width="36" height="36" viewBox="0 0 36 36" fill="none" xmlns="http://www.w3.org/2000/svg">
<path d="M36 18C36 18.0633 36 18.1266 36 18.1898C35.9719 20.7563 33.6375 22.5 31.0711 22.5H24.1875C22.3242 22.5 20.8125 24.0117 20.8125 25.875C20.8125 26.1141 20.8406 26.3461 20.8828 26.5711C21.0305 27.2883 21.3398 27.9773 21.6422 28.6734C22.0711 29.6437 22.493 30.607 22.493 31.6266C22.493 33.8625 20.9742 35.8945 18.7383 35.9859C18.4922 35.993 18.2461 36 17.993 36C8.05781 36 0 27.9422 0 18C0 8.05781 8.05781 0 18 0C27.9422 0 36 8.05781 36 18ZM9 20.25C9 19.6533 8.76295 19.081 8.34099 18.659C7.91903 18.2371 7.34674 18 6.75 18C6.15326 18 5.58097 18.2371 5.15901 18.659C4.73705 19.081 4.5 19.6533 4.5 20.25C4.5 20.8467 4.73705 21.419 5.15901 21.841C5.58097 22.2629 6.15326 22.5 6.75 22.5C7.34674 22.5 7.91903 22.2629 8.34099 21.841C8.76295 21.419 9 20.8467 9 20.25ZM9 13.5C9.59674 13.5 10.169 13.2629 10.591 12.841C11.0129 12.419 11.25 11.8467 11.25 11.25C11.25 10.6533 11.0129 10.081 10.591 9.65901C10.169 9.23705 9.59674 9 9 9C8.40326 9 7.83097 9.23705 7.40901 9.65901C6.98705 10.081 6.75 10.6533 6.75 11.25C6.75 11.8467 6.98705 12.419 7.40901 12.841C7.83097 13.2629 8.40326 13.5 9 13.5ZM20.25 6.75C20.25 6.15326 20.0129 5.58097 19.591 5.15901C19.169 4.73705 18.5967 4.5 18 4.5C17.4033 4.5 16.831 4.73705 16.409 5.15901C15.9871 5.58097 15.75 6.15326 15.75 6.75C15.75 7.34674 15.9871 7.91903 16.409 8.34099C16.831 8.76295 17.4033 9 18 9C18.5967 9 19.169 8.76295 19.591 8.34099C20.0129 7.91903 20.25 7.34674 20.25 6.75ZM27 13.5C27.5967 13.5 28.169 13.2629 28.591 12.841C29.0129 12.419 29.25 11.8467 29.25 11.25C29.25 10.6533 29.0129 10.081 28.591 9.65901C28.169 9.23705 27.5967 9 27 9C26.4033 9 25.831 9.23705 25.409 9.65901C24.9871 10.081 24.75 10.6533 24.75 11.25C24.75 11.8467 24.9871 12.419 25.409 12.841C25.831 13.2629 26.4033 13.5 27 13.5Z" fill="#06B6D4"/>
</svg>
