<svg width="25" height="36" viewBox="0 0 25 36" fill="none" xmlns="http://www.w3.org/2000/svg">
<path d="M18 27C18.675 24.757 20.0742 22.8445 21.4594 20.9391C21.825 20.4398 22.1906 19.9406 22.5422 19.4344C23.9344 17.4305 24.75 15.0047 24.75 12.382C24.75 5.54063 19.2094 0 12.375 0C5.54063 0 0 5.54063 0 12.375C0 14.9977 0.815625 17.4305 2.20781 19.4273C2.55938 19.9336 2.925 20.4328 3.29062 20.932C4.68281 22.8375 6.08203 24.757 6.75 26.993H18V27ZM12.375 36C15.4828 36 18 33.4828 18 30.375V29.25H6.75V30.375C6.75 33.4828 9.26719 36 12.375 36ZM6.75 12.375C6.75 12.9937 6.24375 13.5 5.625 13.5C5.00625 13.5 4.5 12.9937 4.5 12.375C4.5 8.02266 8.02266 4.5 12.375 4.5C12.9937 4.5 13.5 5.00625 13.5 5.625C13.5 6.24375 12.9937 6.75 12.375 6.75C9.26719 6.75 6.75 9.26719 6.75 12.375Z" fill="#FACC15"/>
</svg>
