<svg width="69" height="78" viewBox="0 0 69 78" fill="none" xmlns="http://www.w3.org/2000/svg">
<g clip-path="url(#clip0_57_263)">
<path d="M59.84 15.0102C59.84 14.6968 59.6333 14.4902 59.22 14.3902C58.8 14.3902 57.81 14.3902 56.25 14.3902C54.5833 14.2835 53.6467 14.2302 53.44 14.2302C53.3333 14.1235 52.7067 13.5502 51.56 12.5102C50.4133 11.4702 49.4767 10.5335 48.75 9.70017V77.3502L68.44 72.5102C68.3333 72.1968 67.8633 69.2268 67.03 63.6002C66.1967 57.9802 65.26 51.4202 64.22 43.9202C63.0733 36.4202 62.0833 29.8568 61.25 24.2302C60.4167 18.5035 59.9467 15.4302 59.84 15.0102ZM44.38 9.70017C44.0667 8.76017 43.65 7.87351 43.13 7.04017C41.4633 3.8135 39.17 2.20017 36.25 2.20017C36.0433 2.20017 35.8367 2.20017 35.63 2.20017C35.63 2.20017 35.5767 2.14684 35.47 2.04017C35.47 2.04017 35.4167 1.99017 35.31 1.89017C34.0633 0.530172 32.5033 -0.0964952 30.63 0.0101715C26.67 0.216838 23.1267 2.77017 20 7.67017C17.8133 11.3168 16.46 14.9602 15.94 18.6002C11.2533 19.9602 8.75333 20.7435 8.44 20.9502C7.4 21.1568 6.77333 21.4168 6.56 21.7302C6.24667 22.0435 6.04 22.7202 5.94 23.7602C5.94 24.3868 5.62667 26.9902 5 31.5702C4.37333 36.0502 3.69667 41.2068 2.97 47.0402C2.24333 52.8735 1.56667 57.9768 0.94 62.3502C0.42 66.7302 0.106667 69.0768 0 69.3902L47.34 77.5102V9.07017C47.1333 9.07017 46.8733 9.07017 46.56 9.07017C46.56 9.07017 45.8333 9.28017 44.38 9.70017ZM35.63 12.5102C34.3767 12.9302 33.02 13.3468 31.56 13.7602C30.3133 14.1802 29.0633 14.5435 27.81 14.8502C28.6433 11.7302 29.9467 9.12684 31.72 7.04017C32.4467 6.31351 33.3333 5.63684 34.38 5.01017C35.42 7.61684 35.8367 10.1168 35.63 12.5102ZM30.63 2.51017C31.3567 2.51017 32.0833 2.72017 32.81 3.14017C31.77 3.66017 30.78 4.38684 29.84 5.32017C27.4467 8.24017 25.8333 11.7302 25 15.7902C22.7067 16.5235 20.52 17.2002 18.44 17.8202C19.1667 14.4868 20.6233 11.2068 22.81 7.98017C24.9967 4.64684 27.6033 2.8235 30.63 2.51017ZM23.28 37.0402C23.5933 38.5002 24.8967 39.8035 27.19 40.9502C28.8567 41.8835 30.47 43.1335 32.03 44.7002C33.5967 46.2602 34.4833 48.4468 34.69 51.2602C34.8967 55.0135 34.0633 58.0335 32.19 60.3202C30.3167 62.6135 27.7633 63.9168 24.53 64.2302C20.6767 64.2302 17.76 63.6035 15.78 62.3502C13.7 61.1035 12.66 60.3768 12.66 60.1702L14.38 53.2902C14.48 53.3968 15.3133 53.9168 16.88 54.8502C18.44 55.7902 20.1067 56.2602 21.88 56.2602C22.92 56.1535 23.7 55.7368 24.22 55.0102C24.6333 54.3835 24.84 53.7602 24.84 53.1402C24.4267 50.9468 23.1267 49.2802 20.94 48.1402C19.6867 47.3068 18.4867 46.2635 17.34 45.0102C16.2 43.6568 15.5233 41.8335 15.31 39.5402C14.9967 35.6868 16.09 32.3035 18.59 29.3902C20.99 26.4702 24.7933 24.7502 30 24.2302C32.0867 24.1235 33.65 24.2268 34.69 24.5402C35.73 24.7468 36.25 24.9035 36.25 25.0102L33.75 33.9202C33.75 33.9202 33.1767 33.7635 32.03 33.4502C30.99 33.0302 29.6367 32.8735 27.97 32.9802C25.6767 33.1868 24.3233 33.8102 23.91 34.8502C23.39 35.7902 23.18 36.5202 23.28 37.0402ZM38.13 11.7302C38.23 9.64351 37.8633 7.35017 37.03 4.85017C38.49 5.27017 39.5833 6.0535 40.31 7.20017C41.1433 8.44684 41.6667 9.59351 41.88 10.6402C40.8333 10.9468 39.5833 11.3102 38.13 11.7302Z" fill="#96BF48"/>
</g>
<defs>
<clipPath id="clip0_57_263">
<rect width="68.4375" height="77.5" fill="white"/>
</clipPath>
</defs>
</svg>
