<svg width="100" height="80" viewBox="0 0 100 80" fill="none" xmlns="http://www.w3.org/2000/svg">
<path d="M7.5 7.5H21.25C23.5433 7.29333 24.7933 6.04333 25 3.75C24.7933 1.45667 23.5433 0.206667 21.25 0H5C3.54 0 2.34333 0.47 1.41 1.41C0.47 2.34333 0 3.54 0 5V21.25C0.206667 23.5433 1.45667 24.7933 3.75 25C6.04333 24.7933 7.29333 23.5433 7.5 21.25V7.5ZM27.5 35C30.3133 34.8933 32.45 33.6433 33.91 31.25C35.2633 28.75 35.2633 26.25 33.91 23.75C32.45 21.3567 30.3133 20.1067 27.5 20C24.6867 20.1067 22.5 21.3567 20.94 23.75C19.5867 26.25 19.5867 28.75 20.94 31.25C22.5 33.6433 24.6867 34.8933 27.5 35ZM23.28 40C20.9867 40.1067 19.06 40.94 17.5 42.5C15.94 44.06 15.1067 45.9867 15 48.28C15.2067 50.8867 16.6133 52.2933 19.22 52.5H27.97C28.5967 49.7933 29.7933 47.45 31.56 45.47C33.3333 43.49 35.5233 41.98 38.13 40.94C36.9833 40.3133 35.68 40 34.22 40H23.28ZM80.78 52.5C83.3867 52.2933 84.7933 50.8867 85 48.28C84.8933 45.9867 84.06 44.06 82.5 42.5C80.94 40.94 79.0133 40.1067 76.72 40H65.78C64.32 40 63.02 40.3133 61.88 40.94C64.48 41.98 66.6667 43.49 68.44 45.47C70.2067 47.45 71.4033 49.7933 72.03 52.5H80.78ZM66.88 52.5C65.3133 48.54 62.3967 46.0933 58.13 45.16C57.5033 45.0533 56.8767 45 56.25 45H43.75C43.1233 45 42.5 45.0533 41.88 45.16C37.6067 46.0933 34.69 48.54 33.13 52.5C32.71 53.6467 32.5 54.8967 32.5 56.25C32.7067 58.5433 33.9567 59.7933 36.25 60H63.75C66.0433 59.7933 67.2933 58.5433 67.5 56.25C67.5 54.8967 67.2933 53.6467 66.88 52.5ZM72.5 35C75.3133 34.8933 77.5 33.6433 79.06 31.25C80.3133 28.75 80.3133 26.25 79.06 23.75C77.5 21.3567 75.3133 20.1067 72.5 20C69.6867 20.1067 67.5 21.3567 65.94 23.75C64.6867 26.25 64.6867 28.75 65.94 31.25C67.5 33.6433 69.6867 34.8933 72.5 35ZM60 30C59.8933 26.2533 58.2267 23.39 55 21.41C51.6667 19.53 48.3333 19.53 45 21.41C41.7733 23.39 40.1067 26.2533 40 30C40.1067 33.7533 41.7733 36.6167 45 38.59C48.3333 40.47 51.6667 40.47 55 38.59C58.2267 36.6167 59.8933 33.7533 60 30ZM78.75 7.5H92.5V21.25C92.7067 23.5433 93.9567 24.7933 96.25 25C98.5433 24.7933 99.7933 23.5433 100 21.25V5C100 3.54 99.53 2.34333 98.59 1.41C97.6567 0.47 96.46 0 95 0H78.75C76.4567 0.206667 75.2067 1.45667 75 3.75C75.2067 6.04333 76.4567 7.29333 78.75 7.5ZM7.5 72.5V58.75C7.29333 56.4567 6.04333 55.2067 3.75 55C1.45667 55.2067 0.206667 56.4567 0 58.75V75C0 76.46 0.47 77.6567 1.41 78.59C2.34333 79.53 3.54 80 5 80H21.25C23.5433 79.7933 24.7933 78.5433 25 76.25C24.7933 73.9567 23.5433 72.7067 21.25 72.5H7.5ZM78.75 72.5C76.4567 72.7067 75.2067 73.9567 75 76.25C75.2067 78.5433 76.4567 79.7933 78.75 80H95C96.46 80 97.6567 79.53 98.59 78.59C99.53 77.6567 100 76.46 100 75V58.75C99.7933 56.4567 98.5433 55.2067 96.25 55C93.9567 55.2067 92.7067 56.4567 92.5 58.75V72.5H78.75Z" fill="white"/>
</svg>
