<svg width="78" height="78" viewBox="0 0 78 78" fill="none" xmlns="http://www.w3.org/2000/svg">
<g clip-path="url(#clip0_57_273)">
<path d="M8.44 25.16L24.22 68.59C18.5933 65.8833 14.1133 61.8733 10.78 56.56C7.34667 51.3533 5.57667 45.4167 5.47 38.75C5.57667 33.8567 6.56667 29.3267 8.44 25.16ZM61.25 37.03C60.9367 33.07 60 30.05 58.44 27.97C58.3333 27.7633 58.23 27.5533 58.13 27.34C56.3567 24.9467 55.3667 22.5533 55.16 20.16C55.16 18.4933 55.68 17.0867 56.72 15.94C57.76 14.7933 59.1133 14.22 60.78 14.22C60.8867 14.22 60.99 14.22 61.09 14.22C61.1967 14.22 61.25 14.22 61.25 14.22C55.1033 8.59333 47.6033 5.67667 38.75 5.47C32.9167 5.57667 27.6033 6.93 22.81 9.53C17.9167 12.2367 13.96 15.8833 10.94 20.47C11.7733 20.47 12.5033 20.47 13.13 20.47C15.0033 20.47 16.8767 20.4167 18.75 20.31C20.73 20.21 21.8233 20.16 22.03 20.16C22.8633 20.16 23.3333 20.5767 23.44 21.41C23.44 22.1367 23.0233 22.6033 22.19 22.81C21.8767 22.9167 20.6267 23.0233 18.44 23.13L30.47 59.22L37.81 37.34L32.66 23.13C30.5733 23.0233 29.3733 22.9167 29.06 22.81C28.2267 22.71 27.81 22.2433 27.81 21.41C27.9167 20.5767 28.44 20.16 29.38 20.16C29.48 20.16 30.52 20.21 32.5 20.31C34.3733 20.4167 36.25 20.47 38.13 20.47C40.0033 20.47 41.8767 20.4167 43.75 20.31C45.73 20.21 46.7733 20.16 46.88 20.16C47.8133 20.16 48.3333 20.5767 48.44 21.41C48.44 22.1367 48.0233 22.6033 47.19 22.81C46.8767 22.9167 45.6267 23.0233 43.44 23.13L55.31 58.91L58.75 47.81C58.8567 47.3967 58.96 47.0333 59.06 46.72C60.4133 42.76 61.1433 39.53 61.25 37.03ZM39.38 41.72L29.38 70.63C32.4 71.5633 35.5233 72.03 38.75 72.03C42.6033 72.03 46.3 71.4067 49.84 70.16C49.74 69.9467 49.6367 69.79 49.53 69.69L39.38 41.72ZM67.97 22.81C68.0767 23.8567 68.13 25.0033 68.13 26.25C68.23 29.4767 67.3967 33.4367 65.63 38.13L55.47 67.5C60.47 64.5867 64.48 60.63 67.5 55.63C70.42 50.63 71.93 45.0033 72.03 38.75C71.93 32.9167 70.5767 27.6033 67.97 22.81ZM77.5 38.75C77.3933 45.9367 75.6233 52.4467 72.19 58.28C68.75 64.1133 64.1133 68.75 58.28 72.19C52.4467 75.6233 45.9367 77.3933 38.75 77.5C31.5633 77.3933 25.0533 75.6233 19.22 72.19C13.3867 68.75 8.75 64.1133 5.31 58.28C1.87667 52.4467 0.106667 45.9367 0 38.75C0.106667 31.5633 1.87667 25.0533 5.31 19.22C8.75 13.3867 13.3867 8.75 19.22 5.31C25.0533 1.87667 31.5633 0.106667 38.75 0C45.9367 0.106667 52.4467 1.87667 58.28 5.31C64.1133 8.75 68.75 13.3867 72.19 19.22C75.6233 25.0533 77.3933 31.5633 77.5 38.75ZM75.78 38.75C75.68 31.8767 73.9633 25.68 70.63 20.16C67.3967 14.5333 62.9667 10.1067 57.34 6.88C51.82 3.54667 45.6233 1.82667 38.75 1.72C31.8767 1.82667 25.68 3.54667 20.16 6.88C14.5333 10.1067 10.1067 14.5333 6.88 20.16C3.54667 25.68 1.82667 31.8767 1.72 38.75C1.82667 45.6233 3.54667 51.82 6.88 57.34C10.1067 62.9667 14.5333 67.3967 20.16 70.63C25.68 73.9633 31.8767 75.68 38.75 75.78C45.6233 75.68 51.82 73.9633 57.34 70.63C62.9667 67.3967 67.3967 62.9667 70.63 57.34C73.9633 51.82 75.68 45.6233 75.78 38.75Z" fill="#21759B"/>
</g>
<defs>
<clipPath id="clip0_57_273">
<rect width="77.5" height="77.5" fill="white"/>
</clipPath>
</defs>
</svg>
