<svg width="35" height="25" viewBox="0 0 35 25" fill="none" xmlns="http://www.w3.org/2000/svg">
<g clip-path="url(#clip0_57_382)">
<path d="M0 9.38C0.0533333 6.72 0.963333 4.50333 2.73 2.73C4.50333 0.963333 6.72 0.0533333 9.38 0H10C10.7267 0 11.3267 0.233333 11.8 0.7C12.2667 1.17333 12.5 1.77333 12.5 2.5C12.5 3.22667 12.2667 3.82667 11.8 4.3C11.3267 4.76667 10.7267 5 10 5H9.38C8.12667 5.05333 7.08333 5.47 6.25 6.25C5.47 7.08333 5.05333 8.12667 5 9.38V10H10C11.4067 10.0533 12.58 10.5467 13.52 11.48C14.4533 12.42 14.9467 13.5933 15 15V20C14.9467 21.4067 14.4533 22.58 13.52 23.52C12.58 24.4533 11.4067 24.9467 10 25H5C3.59333 24.9467 2.42 24.4533 1.48 23.52C0.546667 22.58 0.0533333 21.4067 0 20V17.5V15V9.38ZM20 9.38C20.0533 6.72 20.9633 4.50333 22.73 2.73C24.5033 0.963333 26.72 0.0533333 29.38 0H30C30.7267 0 31.3267 0.233333 31.8 0.7C32.2667 1.17333 32.5 1.77333 32.5 2.5C32.5 3.22667 32.2667 3.82667 31.8 4.3C31.3267 4.76667 30.7267 5 30 5H29.38C28.1267 5.05333 27.0833 5.47 26.25 6.25C25.47 7.08333 25.0533 8.12667 25 9.38V10H30C31.4067 10.0533 32.58 10.5467 33.52 11.48C34.4533 12.42 34.9467 13.5933 35 15V20C34.9467 21.4067 34.4533 22.58 33.52 23.52C32.58 24.4533 31.4067 24.9467 30 25H25C23.5933 24.9467 22.42 24.4533 21.48 23.52C20.5467 22.58 20.0533 21.4067 20 20V17.5V15V9.38Z" fill="#3B82F6"/>
</g>
<defs>
<clipPath id="clip0_57_382">
<rect width="35" height="25" fill="white"/>
</clipPath>
</defs>
</svg>
