<svg width="16" height="16" viewBox="0 0 16 16" fill="none" xmlns="http://www.w3.org/2000/svg">
<g clip-path="url(#clip0_57_335)">
<path d="M8 16C9.46 15.98 10.7933 15.6267 12 14.94C13.2067 14.2333 14.1867 13.2533 14.94 12C15.6467 10.7267 16 9.39333 16 8C16 6.60667 15.6467 5.27333 14.94 4C14.1867 2.75333 13.2067 1.77333 12 1.06C10.7933 0.373333 9.46 0.02 8 0C6.54 0.02 5.20667 0.373333 4 1.06C2.79333 1.77333 1.81333 2.75333 1.06 4C0.353333 5.27333 0 6.60667 0 8C0 9.39333 0.353333 10.7267 1.06 12C1.81333 13.2533 2.79333 14.2333 4 14.94C5.20667 15.6267 6.54 15.98 8 16ZM11.53 6.53L7.53 10.53C7.17667 10.8233 6.82333 10.8233 6.47 10.53L4.47 8.53C4.17667 8.17667 4.17667 7.82333 4.47 7.47C4.82333 7.17667 5.17667 7.17667 5.53 7.47L7 8.94L10.47 5.47C10.8233 5.17667 11.1767 5.17667 11.53 5.47C11.8233 5.82333 11.8233 6.17667 11.53 6.53Z" fill="#3B82F6"/>
</g>
<defs>
<clipPath id="clip0_57_335">
<rect width="16" height="16" fill="white"/>
</clipPath>
</defs>
</svg>
