<svg width="132" height="150" viewBox="0 0 132 150" fill="none" xmlns="http://www.w3.org/2000/svg">
<path d="M65.63 75C58.79 75 52.54 73.34 46.88 70.02C41.2133 66.7 36.6233 62.11 33.11 56.25C29.79 50.39 28.13 44.14 28.13 37.5C28.13 30.86 29.79 24.61 33.11 18.75C36.6233 12.89 41.2133 8.3 46.88 4.98C52.54 1.66 58.79 0 65.63 0C72.4633 0 78.7133 1.66 84.38 4.98C90.04 8.3 94.6267 12.89 98.14 18.75C101.467 24.61 103.13 30.86 103.13 37.5C103.13 44.14 101.467 50.39 98.14 56.25C94.6267 62.11 90.04 66.7 84.38 70.02C78.7133 73.34 72.4633 75 65.63 75ZM61.23 105.18L55.96 96.09C54.98 94.53 54.88 92.97 55.66 91.41C56.64 90.0433 58.01 89.26 59.77 89.06H65.63H71.48C73.24 89.26 74.61 90.0433 75.59 91.41C76.37 92.97 76.27 94.53 75.29 96.09L70.02 105.18L79.69 141.5L90.23 98.44C91.21 95.9 92.97 94.8233 95.51 95.21C106.057 97.95 114.553 103.42 121 111.62C127.64 120.02 131.057 129.787 131.25 140.92C131.25 143.46 130.37 145.607 128.61 147.36C126.857 149.12 124.71 150 122.17 150H83.79C83.01 150 82.4233 149.903 82.03 149.71V150H49.22V149.71C48.8267 149.903 48.3367 150 47.75 150H9.08C6.54 150 4.39333 149.12 2.64 147.36C0.88 145.607 0 143.46 0 140.92C0.193333 129.787 3.61 120.02 10.25 111.62C16.6967 103.42 25.1933 97.95 35.74 95.21C38.28 94.8233 40.04 95.9 41.02 98.44L51.56 141.5L61.23 105.18Z" fill="white" fill-opacity="0.2"/>
</svg>
