<svg width="14" height="14" viewBox="0 0 14 14" fill="none" xmlns="http://www.w3.org/2000/svg">
<path d="M4.29 10.52L3.45 9.68C3.21 9.42 3.13667 9.12667 3.23 8.8C3.31667 8.54667 3.42333 8.23667 3.55 7.87H0.66C0.4 7.87 0.206667 7.76 0.08 7.54C-0.0266667 7.32667 -0.0266667 7.11 0.08 6.89L1.53 4.45C1.91667 3.83 2.48333 3.51333 3.23 3.5H5.47C5.54333 3.38667 5.60667 3.28667 5.66 3.2C6.42667 2.10667 7.26667 1.32 8.18 0.84C9.08667 0.366666 9.98667 0.093333 10.88 0.0199996C11.7733 -0.0333337 12.5567 0.00333296 13.23 0.13C13.5633 0.223333 13.7733 0.433333 13.86 0.76C13.9867 1.43333 14.0233 2.21667 13.97 3.11C13.8967 4.00333 13.6233 4.90667 13.15 5.82C12.6767 6.73333 11.8933 7.57333 10.8 8.34C10.7067 8.39333 10.6067 8.45667 10.5 8.53V10.77C10.48 11.5167 10.16 12.0833 9.54 12.47L7.11 13.92C6.89 14.0267 6.67 14.0267 6.45 13.92C6.23667 13.7867 6.13 13.5933 6.13 13.34V10.42C5.74333 10.5467 5.41333 10.6533 5.14 10.74C4.81333 10.8333 4.53 10.76 4.29 10.52ZM10.5 4.59C10.92 4.57 11.24 4.38667 11.46 4.04C11.64 3.68 11.64 3.31667 11.46 2.95C11.24 2.60333 10.92 2.42 10.5 2.4C10.08 2.42 9.76 2.60333 9.54 2.95C9.36 3.31667 9.36 3.68 9.54 4.04C9.76 4.38667 10.08 4.57 10.5 4.59Z" fill="white"/>
</svg>
